<?xml version="1.0" encoding="iso-8859-1"?>
<!-- Generator: Adobe Illustrator 17.1.0, SVG Export Plug-In . SVG Version: 6.00 Build 0)  -->
<!DOCTYPE svg PUBLIC "-//W3C//DTD SVG 1.1//EN" "http://www.w3.org/Graphics/SVG/1.1/DTD/svg11.dtd">
<svg version="1.1" id="Capa_1" xmlns="http://www.w3.org/2000/svg" xmlns:xlink="http://www.w3.org/1999/xlink" x="0px" y="0px"
	 viewBox="0 0 467.66 467.66" style="enable-background:new 0 0 467.66 467.66;" xml:space="preserve">
<g>
	<path d="M444.578,452.66h-50.976v-15.367c0-35.193-9.385-62.355-27.895-80.733c-23.587-23.419-53.194-23.441-54.406-23.474h-37.571
		v-22.734c0-0.396-0.04-0.783-0.1-1.163c5.075-2.097,9.746-4.495,14.06-7.1c14.22,7.144,27.918,9.702,40.233,9.702
		c29.803-0.002,51.496-14.939,52.766-15.833c1.995-1.405,3.182-3.692,3.182-6.132V140.818c0-49.166-16.814-86.598-49.973-111.256
		C308.262,10.499,272.724,0,233.83,0s-74.432,10.499-100.068,29.563c-33.159,24.658-49.973,62.09-49.973,111.256v149.009
		c0,2.44,1.186,4.727,3.181,6.132c1.27,0.894,22.959,15.834,52.766,15.833c12.314-0.001,26.017-2.56,40.233-9.702
		c4.314,2.604,8.984,5.003,14.059,7.1c-0.059,0.38-0.099,0.767-0.099,1.163v22.734h-37.518c-1.244,0.021-30.87,0.052-54.46,23.474
		c-18.509,18.377-27.894,45.539-27.894,80.733v15.367H23.082c-4.142,0-7.5,3.357-7.5,7.5c0,4.143,3.358,7.5,7.5,7.5h421.497
		c4.143,0,7.5-3.357,7.5-7.5C452.078,456.018,448.721,452.66,444.578,452.66z M311.356,348.087
		c0.239,0.004,24.59,0.06,43.784,19.118c15.569,15.457,23.463,39.038,23.463,70.088v15.367h-19.38v-40.654
		c0-4.143-3.357-7.5-7.5-7.5h-31.524v-11.84c0-4.143-3.357-7.5-7.5-7.5c-4.143,0-7.5,3.357-7.5,7.5v11.84h-31.524
		c-4.143,0-7.5,3.357-7.5,7.5v40.654H241.33v-57.448l14.061,4.585c0.764,0.249,1.548,0.369,2.324,0.369
		c2.139,0,4.221-0.916,5.67-2.59l7.82-9.029l13.592-8.308c2.627-1.606,4.006-4.655,3.477-7.689l-4.271-24.463H311.356z
		 M344.223,419.506v33.154h-63.049v-33.154H344.223z M198.011,358.164c5.425,11.023,15.789,19.19,28.187,21.602l-12.959,4.227
		l-5.323-6.146c-0.506-0.584-1.099-1.086-1.758-1.489l-10.231-6.254L198.011,358.164z M270.291,356.763l2.329,13.34l-10.232,6.254
		c-0.658,0.403-1.252,0.905-1.757,1.489l-5.323,6.146l-13.293-4.335C254.681,377.003,265.151,368.321,270.291,356.763z
		 M158.42,260.633c-11.735-18.011-15.267-35.842-15.808-38.913v-82.058c2.791,0.131,6.207,0.232,10.141,0.232
		c15.138,0,38.341-1.49,62.913-8.585c25.303-7.307,46.754-18.959,63.928-34.706c6.215,11.86,19.557,30.315,45.454,40.303v84.824
		c-0.529,3.06-3.936,20.471-15.509,38.441c-16.804,26.092-42.039,40.435-75.012,42.631h-1.394
		C200.366,300.617,175.228,286.431,158.42,260.633z M98.789,285.678V140.818c0-44.164,14.778-77.546,43.924-99.22
		C165.78,24.446,198.139,15,233.83,15c35.691,0,68.051,9.446,91.117,26.599c29.145,21.674,43.924,55.056,43.924,99.22v144.831
		c-9.055,5.155-36.295,17.925-67.127,6.243c8.797-7.596,15.455-15.912,20.406-23.6c14.433-22.41,17.689-43.977,17.819-44.884
		c0.052-0.356,0.078-0.716,0.078-1.076V131.6c0-3.261-2.107-6.148-5.213-7.143c-35.749-11.449-45.126-41.776-45.499-43.032
		c-0.749-2.602-2.843-4.599-5.478-5.223c-2.637-0.625-5.402,0.221-7.238,2.209c-16.036,17.359-53.451,46.482-123.867,46.482
		c-10.254,0-16.706-0.735-16.763-0.742c-2.124-0.253-4.259,0.42-5.861,1.844c-1.601,1.423-2.517,3.463-2.517,5.604v90.733
		c0,0.36,0.026,0.72,0.078,1.076c0.131,0.907,3.387,22.474,17.82,44.884c4.952,7.689,11.613,16.009,20.413,23.606
		C134.891,303.725,107.85,290.914,98.789,285.678z M232.403,317.786c0.161,0.011,0.323,0.016,0.485,0.016h1.886
		c0.162,0,0.324-0.005,0.485-0.016c8.5-0.551,16.299-1.832,23.473-3.668v26.296c-0.002,0.064-0.01,0.128-0.01,0.193
		c0,13.73-11.168,24.898-24.896,24.898c-13.727,0-24.895-11.169-24.895-24.898c0-0.004,0-0.007,0-0.01c0-0.004,0-0.007,0-0.011
		v-26.469C216.104,315.954,223.903,317.235,232.403,317.786z M89.058,437.293c0-88.178,64.527-89.205,67.301-89.206h28.184
		l-4.271,24.463c-0.53,3.034,0.849,6.083,3.477,7.689l13.591,8.308l7.82,9.029c1.45,1.674,3.531,2.59,5.67,2.59
		c0.776,0,1.56-0.12,2.324-0.369l13.176-4.297v57.16H89.058V437.293z"/>
	<circle cx="180.593" cy="173.998" r="8.951"/>
	<circle cx="287.067" cy="173.998" r="8.951"/>
	<path d="M232.531,222.38h2.6c7.767,0,14.113-6.119,14.517-13.787c0.025-0.253,0.039-0.509,0.039-0.769v-17.818
		c0-4.143-3.357-7.5-7.5-7.5c-4.143,0-7.5,3.357-7.5,7.5v17.374h-1.724c-0.229-3.936-3.494-7.056-7.487-7.056
		c-4.142,0-7.5,3.357-7.5,7.5C217.975,215.851,224.505,222.38,232.531,222.38z"/>
	<path d="M298.567,443.834h28.264c4.143,0,7.5-3.357,7.5-7.5c0-4.143-3.357-7.5-7.5-7.5h-28.264c-4.142,0-7.5,3.357-7.5,7.5
		C291.067,440.477,294.424,443.834,298.567,443.834z"/>
	<path d="M280.324,252.724c2.601-3.224,2.095-7.945-1.13-10.546c-3.225-2.6-7.946-2.096-10.546,1.13
		c-0.08,0.099-9.089,9.938-32.971,9.938c-24.794,0-36.889-10.282-37.493-10.811c-3.061-2.752-7.775-2.52-10.553,0.527
		c-2.791,3.061-2.571,7.805,0.489,10.595c0.658,0.6,16.468,14.688,47.557,14.688C266.904,268.246,279.043,254.313,280.324,252.724z"
		/>
</g>
<g>
</g>
<g>
</g>
<g>
</g>
<g>
</g>
<g>
</g>
<g>
</g>
<g>
</g>
<g>
</g>
<g>
</g>
<g>
</g>
<g>
</g>
<g>
</g>
<g>
</g>
<g>
</g>
<g>
</g>
</svg>
